<svg id="Layer_1" data-name="Layer 1" xmlns="http://www.w3.org/2000/svg" viewBox="2.31 2.31 115.38 115.38">
  <g>
    <path d="M89.391,103.348v2.793A1.382,1.382,0,0,1,87.98,107.5H32.021a1.383,1.383,0,0,1-1.412-1.359v-2.793A17.2,17.2,0,0,1,40.965,87.692a15.813,15.813,0,0,1,2.488-.893c-.489-.209-.97-.437-1.439-.674a37.152,37.152,0,0,1-3.371-1.862L43.9,80.786A25.165,25.165,0,0,1,33.666,60.6a29.337,29.337,0,0,1,1.411-8.246c3.576-11.381,13.148-21.888,19.329-27.778-2.184-1.14-3.595-2.935-3.595-4.949,0-3.439,4.115-6.232,9.189-6.232s9.18,2.793,9.18,6.232c0,2.014-1.4,3.809-3.586,4.94a103.556,103.556,0,0,1,8.533,9.177L71.414,37.58,55.122,60.6l-2.988,4.228.92.617L59.2,69.528l6.319-8.93,12.9-18.24.99-1.4a48.153,48.153,0,0,1,5.506,11.39,29.3,29.3,0,0,1,1.41,8.246A25.2,25.2,0,0,1,76.116,80.777l5.241,3.486a37.135,37.135,0,0,1-3.37,1.862c-.47.237-.95.465-1.439.674a16.055,16.055,0,0,1,2.477.893A17.2,17.2,0,0,1,89.391,103.348Z" fill="#4d4d4d"/>
    <g>
      <path d="M87.216,95.084c-4.7-5.872-15.078-4.133-27.216-3.829-10.786.266-17.458.466-20.818,2.527-4.889,2.993-5.232,7.648-3.106,9.861C38.888,106.55,52.241,107.5,60,107.5H32.02a1.384,1.384,0,0,1-1.411-1.368v-2.783A17.187,17.187,0,0,1,40.965,87.693a15.713,15.713,0,0,1,2.488-.893c-.49-.209-.97-.438-1.44-.675a36.893,36.893,0,0,1-3.37-1.862l5.241-3.477h.02a25.183,25.183,0,0,1-10.238-20.2,29.38,29.38,0,0,1,1.4-8.208c0-.009.01-.028.01-.038,3.585-11.39,13.157-21.888,19.339-27.778-2.2-1.13-3.6-2.926-3.6-4.94,0-3.439,4.114-6.232,9.189-6.232,4.683,0,8.533,2.375,9.1,5.444-.558-2.489-3.723-4.389-7.543-4.389-4.213,0-7.632,2.318-7.632,5.177S57.345,24.8,61.558,24.8c3.811,0,6.975-1.9,7.543-4.38a6.2,6.2,0,0,1-3.517,4.142,105.187,105.187,0,0,1,7.367,7.762c-5.358-5.7-8.16-6.061-12.951-5.52C49.547,27.985,36.331,46.045,37.9,61.226c1.421,13.841,10.463,22.116,22.1,23.5,11.717,1.4,31.605-12.493,24.071-34.808q.47,1.2.852,2.422l.03.086a29.414,29.414,0,0,1,1.381,8.16A25.189,25.189,0,0,1,76.116,80.777l5.241,3.486c-5.682-3.819-7.926,1.53-20.23,1.843-.363.01-.745.019-1.127.019-6.486,0-11.923-.978-16.214.817.382.171.764.323,1.146.475.167.076.333.143.5.2s.333.123.5.19c.431.152.852.3,1.293.446.48.162.96.3,1.45.447.352.1.705.2,1.068.294l.235.057q.617.158,1.234.285a5.229,5.229,0,0,0,.539.114c.225.057.46.095.7.143.46.085.92.161,1.391.228a.822.822,0,0,0,.147.019c.5.085,1.009.142,1.518.2.4.048.8.086,1.215.114s.843.067,1.274.086c.666.028,1.332.047,2.008.047A40.594,40.594,0,0,0,76.547,86.8a15.713,15.713,0,0,1,2.488.893A17.618,17.618,0,0,1,87.216,95.084Z" fill="#333"/>
      <path d="M89.391,103.349v2.783A1.384,1.384,0,0,1,87.98,107.5H71.972c14.048-.123,18.457-1.121,16.9-8.293A16.559,16.559,0,0,1,89.391,103.349Z" fill="#333"/>
    </g>
    <path d="M60,13.393c5.075,0,9.18,2.793,9.18,6.232,0,2.014-1.4,3.809-3.586,4.94a103.556,103.556,0,0,1,8.533,9.177L71.414,37.58,55.122,60.6l-2.988,4.228.92.617L59.2,69.528l6.319-8.93,12.9-18.24.99-1.4a48.153,48.153,0,0,1,5.506,11.39,29.3,29.3,0,0,1,1.41,8.246A25.2,25.2,0,0,1,76.116,80.777l5.241,3.486a37.135,37.135,0,0,1-3.37,1.862c-.47.238-.95.465-1.439.674a16.055,16.055,0,0,1,2.477.893,17.2,17.2,0,0,1,10.366,15.656v2.793A1.382,1.382,0,0,1,87.98,107.5H32.021a1.383,1.383,0,0,1-1.412-1.359v-2.793A17.2,17.2,0,0,1,40.965,87.692a15.813,15.813,0,0,1,2.488-.893c-.489-.209-.97-.436-1.439-.674a37.152,37.152,0,0,1-3.371-1.862L43.9,80.786A25.165,25.165,0,0,1,33.666,60.6a29.337,29.337,0,0,1,1.411-8.246c3.576-11.381,13.148-21.888,19.329-27.778-2.184-1.14-3.595-2.935-3.595-4.949,0-3.439,4.115-6.232,9.189-6.232m0-1.5c-5.994,0-10.689,3.4-10.689,7.732A6.737,6.737,0,0,0,52.02,24.8c-5.886,5.81-14.9,16.045-18.374,27.1a30.875,30.875,0,0,0-1.48,8.669,26.451,26.451,0,0,0,9.2,20.093l-3.551,2.347a1.5,1.5,0,0,0,.037,2.526c.615.382,1.236.744,1.857,1.085a18.714,18.714,0,0,0-10.6,16.725v2.793A2.889,2.889,0,0,0,32.021,109H87.98a2.888,2.888,0,0,0,2.911-2.859v-2.793A18.725,18.725,0,0,0,80.286,86.625c.622-.341,1.245-.7,1.862-1.087a1.5,1.5,0,0,0,.04-2.524l-3.543-2.357A26.482,26.482,0,0,0,87.824,60.6,30.9,30.9,0,0,0,86.345,51.9,49.484,49.484,0,0,0,80.67,40.151a1.5,1.5,0,0,0-1.228-.689h-.034a1.5,1.5,0,0,0-1.223.632l-.991,1.4-12.9,18.242-5.477,7.74-4.567-3.037,2.1-2.971L72.638,38.446l2.714-3.838a1.5,1.5,0,0,0-.063-1.815,102.492,102.492,0,0,0-7.309-8,6.716,6.716,0,0,0,2.7-5.169c0-4.336-4.691-7.732-10.68-7.732Z"/>
  </g>
</svg>
