<svg id="Layer_1" data-name="Layer 1" xmlns="http://www.w3.org/2000/svg" viewBox="2.31 2.31 115.38 115.38">
  <g>
    <path d="M83.511,27.928c-6.466,0-9.529,1.8-16.2,5-.1.052-.2.1-.306.148a8.685,8.685,0,0,1-.919.438,18.72,18.72,0,0,1-3.071-8.041l7.928,2.73V17.812L63.01,20.543q1.772-3.821,3.553-7.657-3.282,0-6.563.009H53.438q1.771,3.819,3.552,7.648l-7.927-2.731v10.4c2.642-.918,7.927-2.738,7.927-2.738a18.72,18.72,0,0,1-3.071,8.041A8.685,8.685,0,0,1,53,33.072c-.1-.052-.21-.1-.306-.148-6.676-3.194-9.739-5-16.214-5a21.6,21.6,0,0,0-21.595,21.6c0,.368.009.735.026,1.094.464,16.721,11.734,26.932,25.27,31.185l-4.9,3.368c1.119.429,2.283.841,3.49,1.208a18.584,18.584,0,0,0-10.49,16.739v3.115a1.254,1.254,0,0,0,1.259,1.26H90.459a1.255,1.255,0,0,0,1.26-1.26v-3.115A18.585,18.585,0,0,0,81.228,86.386c1.207-.367,2.371-.779,3.491-1.208l-4.9-3.368c13.536-4.253,24.8-14.455,25.27-31.168.017-.367.026-.734.026-1.111A21.6,21.6,0,0,0,83.511,27.928ZM28.028,50.117c-.018-.192-.018-.393-.018-.586a8.473,8.473,0,0,1,8.47-8.478c.166,0,.341.008.517.017a32.254,32.254,0,0,1,11.191,3.412,7.639,7.639,0,0,1,4.156,6.808V67.845a3.3,3.3,0,0,1-3.877,3.237C37.329,69.184,28.386,59.428,28.028,50.117Zm63.944,0c-.367,9.311-9.31,19.067-20.448,20.965a3.3,3.3,0,0,1-3.867-3.237V51.29a7.637,7.637,0,0,1,4.156-6.808A32.15,32.15,0,0,1,83,41.07c.184-.009.35-.017.516-.017a8.475,8.475,0,0,1,8.479,8.478C91.99,49.724,91.99,49.925,91.972,50.117Z" fill="#4d4d4d"/>
    <g>
      <path d="M91.719,103.125v3.115a1.255,1.255,0,0,1-1.26,1.26h-15.7c12.233-.175,17.885-1.409,16.52-8.4A18.462,18.462,0,0,1,91.719,103.125Z" fill="#333"/>
      <path d="M105.1,50.266c0,.131,0,.254-.008.376-.473,16.713-11.734,26.915-25.27,31.168L84.4,84.96c-4.156-2.695-5.714-.525-23.266-.438-.368.009-.744.009-1.129.009-.49,0-1.041-.009-1.636-.017-.2-.009-.4-.009-.613-.018-.1,0-.219,0-.332-.009-5.924-.14-15.5-.446-17.78,2.162h.008c.368.113.744.218,1.129.323.761.21,1.54.412,2.336.595.394.1.8.184,1.2.272A70.147,70.147,0,0,0,51.5,88.994l1.041.105c1.5.14,3.019.245,4.567.3.359.018.718.026,1.077.035.6.009,1.207.018,1.811.018a71.325,71.325,0,0,0,21.219-3.063h.008a18.636,18.636,0,0,1,7.525,6.659C84.719,87.926,73.037,89.685,60,90.367c-11.174.578-18.279-.306-22.925,2.547-3.894,2.388-5.084,7.63-3.325,9.782,3.062,3.754,20.291,4.8,26.25,4.8H29.541a1.255,1.255,0,0,1-1.26-1.26v-3.115A18.584,18.584,0,0,1,38.772,86.386c-1.207-.367-2.371-.779-3.491-1.207l4.9-3.369c-13.536-4.253-24.806-14.464-25.27-31.185-.017-.359-.026-.726-.026-1.094a21.6,21.6,0,0,1,21.6-21.6c6.475,0,9.537,1.8,16.214,5,.1.052.2.1.306.148a1.9,1.9,0,0,0,.227.123c-3.832-1.689-7.953-4.568-16.406-4.445-9.336.131-17.937,10.089-17.937,20.134,0,19.188,24.806,36.968,55.79,32.366C92.611,78.59,104.572,64.091,105.1,50.266Z" fill="#333"/>
      <path d="M65.521,12.886c-1.409.009-2.651.018-3.736.061l-.709.027c-.044,0-.1.008-.14.008-.315.027-.621.044-.91.07-.14.009-.28.018-.411.035s-.28.027-.411.044l-.377.053c-.026,0-.052.008-.07.008-.218.035-.428.07-.63.114-.105.018-.21.044-.315.07l-.288.079a2.4,2.4,0,0,0-.272.087,1.315,1.315,0,0,0-.192.07,2.062,2.062,0,0,0-.376.167,2.2,2.2,0,0,0-.324.192c-.061.044-.123.088-.175.131a1.317,1.317,0,0,0-.158.14,1.164,1.164,0,0,0-.131.149,1.319,1.319,0,0,0-.192.3.422.422,0,0,0-.062.131.119.119,0,0,0-.026.044c-.446,1.128.088,2.9,1.374,5.678q-1.772-3.819-3.553-7.647H60C61.837,12.886,63.684,12.886,65.521,12.886Z" fill="#333"/>
      <path d="M56.071,25.731c.2-.044.376-.1.525-.131-1.269.437-5.329,1.837-7.534,2.607V17.812l7.928,2.73c-5.74-1.977-6.86-.192-7.053,1.155-.507,3.535,1.61,4.358,3.667,4.358A8.587,8.587,0,0,0,54.557,26c.42-.052.814-.113,1.164-.192C55.844,25.784,55.957,25.757,56.071,25.731Z" fill="#333"/>
      <path d="M66.081,33.51a15.3,15.3,0,0,1-12.162,0,18.725,18.725,0,0,0,3.071-8.041c-.674,5.547,2.607,8.155,4.182,7.875,3.868-.692,2.118-5.723,1.838-7.875A18.725,18.725,0,0,0,66.081,33.51Z" fill="#333"/>
      <path d="M70.937,22.651V28.2l-4.646-1.6C70.64,28.006,70.937,26.93,70.937,22.651Z" fill="#333"/>
    </g>
    <path d="M66.563,12.886q-1.773,3.833-3.553,7.657l7.928-2.73V28.2l-7.928-2.73a18.679,18.679,0,0,0,3.071,8.041A8.685,8.685,0,0,0,67,33.072c.105-.052.21-.1.306-.148,6.676-3.194,9.739-5,16.2-5a21.6,21.6,0,0,1,21.6,21.6c0,.376-.009.744-.026,1.112-.473,16.712-11.734,26.915-25.27,31.176l4.9,3.36c-1.12.428-2.284.84-3.491,1.207a18.585,18.585,0,0,1,10.491,16.739v3.115a1.255,1.255,0,0,1-1.26,1.26H29.541a1.255,1.255,0,0,1-1.26-1.26v-3.115A18.585,18.585,0,0,1,38.772,86.386c-1.207-.367-2.371-.779-3.491-1.207l4.9-3.36c-13.536-4.261-24.806-14.473-25.27-31.194-.017-.359-.026-.726-.026-1.094a21.6,21.6,0,0,1,21.6-21.6c6.475,0,9.538,1.8,16.214,5,.1.052.2.1.306.148a8.685,8.685,0,0,0,.919.438,18.679,18.679,0,0,0,3.071-8.041s-5.285,1.82-7.927,2.739V17.813l7.927,2.73q-1.772-3.821-3.552-7.648H60q3.282-.014,6.563-.009M70.958,71.13a3.421,3.421,0,0,0,.566-.047c11.139-1.891,20.081-11.647,20.448-20.966.018-.192.018-.393.018-.586a8.475,8.475,0,0,0-8.479-8.478c-.166,0-.332.008-.516.017a32.144,32.144,0,0,0-11.182,3.412,7.64,7.64,0,0,0-4.157,6.808V67.845a3.291,3.291,0,0,0,3.3,3.285m-21.924,0a3.3,3.3,0,0,0,3.31-3.285V51.29a7.64,7.64,0,0,0-4.156-6.808A32.253,32.253,0,0,0,37,41.07c-.175-.009-.35-.017-.516-.017a8.473,8.473,0,0,0-8.47,8.478c0,.193,0,.394.018.586.358,9.319,9.3,19.075,20.44,20.966a3.4,3.4,0,0,0,.566.047M66.563,11.386q-3.285,0-6.569.009H53.438a1.5,1.5,0,0,0-1.361,2.131l1.779,3.831.288.619L50.525,16.73l-.974-.336a1.5,1.5,0,0,0-1.988,1.419v10.4a1.5,1.5,0,0,0,.176.705A25.2,25.2,0,0,0,36.48,26.428a23.125,23.125,0,0,0-23.095,23.1c0,.392.009.785.028,1.167.4,14.618,8.912,25.991,23.473,31.562l-2.453,1.682a1.5,1.5,0,0,0,.312,2.638l.462.175a19.931,19.931,0,0,0-8.426,16.37v3.115a2.763,2.763,0,0,0,2.76,2.76H90.459a2.763,2.763,0,0,0,2.76-2.76v-3.115a19.931,19.931,0,0,0-8.426-16.37l.462-.175a1.5,1.5,0,0,0,.312-2.638L83.114,82.26c14.554-5.568,23.06-16.936,23.474-31.575.018-.362.027-.753.027-1.154a23.129,23.129,0,0,0-23.1-23.1,25.176,25.176,0,0,0-11.256,2.488,1.5,1.5,0,0,0,.183-.717V17.813a1.5,1.5,0,0,0-1.5-1.5,1.465,1.465,0,0,0-.488.081l-1.247.43-3.346,1.152q1.035-2.227,2.068-4.46a1.5,1.5,0,0,0-1.361-2.13Zm0,3h0Zm.057,17.2a15.571,15.571,0,0,1-1.569-3.832l5.4,1.859a1.618,1.618,0,0,0,.174.049c-.7.328-1.42.678-2.187,1.049-.565.273-1.155.558-1.777.856l-.039.019ZM49.389,29.672a1.649,1.649,0,0,0,.166-.048c1.441-.5,3.668-1.27,5.394-1.865A15.579,15.579,0,0,1,53.38,31.59l-.039-.019c-.621-.3-1.211-.583-1.775-.855-.763-.369-1.484-.718-2.177-1.044ZM70.958,69.63a1.8,1.8,0,0,1-1.8-1.785V51.29a6.109,6.109,0,0,1,3.338-5.471,30.706,30.706,0,0,1,10.581-3.251c.179-.009.308-.015.436-.015a6.986,6.986,0,0,1,6.979,6.978c0,.148,0,.3-.011.451,0,.025,0,.051,0,.076C90.123,58.946,81.33,67.9,71.273,69.6a1.969,1.969,0,0,1-.315.026Zm-21.924,0a1.893,1.893,0,0,1-.317-.027C38.657,67.9,29.869,58.946,29.526,50.06c0-.026,0-.052,0-.078-.013-.148-.011-.3-.011-.451a6.982,6.982,0,0,1,6.97-6.978c.142,0,.292.008.441.015A30.8,30.8,0,0,1,47.5,45.818a6.109,6.109,0,0,1,3.34,5.472V67.845a1.8,1.8,0,0,1-1.81,1.785Z"/>
  </g>
</svg>
