<svg id="Layer_1" data-name="Layer 1" xmlns="http://www.w3.org/2000/svg" viewBox="2.31 2.31 115.38 115.38">
  <g>
    <path d="M83.809,92.27a18.149,18.149,0,0,0-6.907-3.6c.462-.215.925-.439,1.367-.673a27,27,0,0,0,2.564-1.5l-5.3-3.529c2.474-1.628,4.766-4.719,6.546-8.7.01,0,.01,0,.01-.01a44.12,44.12,0,0,0,6.737-23.117,40.441,40.441,0,0,0-22-36.26C59.688,11.2,50.368,10.867,49.07,12.564c-1.347,1.755.373,4.885,3.027,6.367a12.294,12.294,0,0,0-5.369,3.558.521.521,0,0,0-.071.069,12.533,12.533,0,0,0-3.067,4.9c-1.306,3.237-1.236,3.481-2.976,5.762-2.091,2.769-3.8,2.233-8.395,5.733a4.458,4.458,0,0,0-1.428,5.392A4.276,4.276,0,0,0,33.425,46.6v.009A6.44,6.44,0,0,0,35.4,50.345a3.548,3.548,0,0,0,3.831.858c2.352-.9,5.56-3.139,9.17-5.216,2.252-1.287,4.082-1.355,9.662-2.35A12.657,12.657,0,0,0,68.647,32.6c-.4,5.1-3.439,11.417-9.3,16.4-8.265,7.02-20.079,13.1-20.079,24.014v.059c0,3.8,1.971,7.254,5.209,9.9L39.166,86.5A27.138,27.138,0,0,0,41.731,88c.442.234.905.458,1.367.673a17.964,17.964,0,0,0-6.908,3.6,17.374,17.374,0,0,0-6.354,13.407v.419a1.42,1.42,0,0,0,1.448,1.4H88.716a1.427,1.427,0,0,0,1.448-1.4v-.419A17.375,17.375,0,0,0,83.809,92.27Zm-8.285-9.3-.01-.01h.01Z" fill="#f2f2f2"/>
    <g>
      <path d="M56.229,27.063a2.3,2.3,0,0,1-2.513,2.008c-.1,0-.211-.01-.332-.02a1.116,1.116,0,0,1-.171-.019,5.485,5.485,0,0,0-4.937,1.492c-.151.146-.412,0-.332-.2A9,9,0,0,1,52.308,25.4c.03-.019.071-.029.1-.049a2.986,2.986,0,0,1,1.307-.292A2.3,2.3,0,0,1,56.229,27.063Z" fill="#262626"/>
      <g>
        <path d="M66.767,20.871a18.4,18.4,0,0,0-9.411-2.164,25.1,25.1,0,0,0-3.489.273,11.221,11.221,0,0,0-1.378.282c-.161.039-.312.078-.462.127a12.177,12.177,0,0,0-1.328.478c-.181.078-.372.166-.553.254-.12.058-.231.117-.352.185a15.793,15.793,0,0,0-5.258,5.031c.03-.059.06-.108.09-.166.061-.107.121-.215.191-.322.071-.127.151-.244.232-.361.151-.214.3-.429.462-.633.111-.147.221-.293.342-.429a1.013,1.013,0,0,1,.091-.108c.11-.136.231-.263.351-.389s.232-.254.352-.371a.422.422,0,0,1,.071-.068,12.288,12.288,0,0,1,5.369-3.559c-2.654-1.482-4.374-4.612-3.027-6.367.624-.819,3.127-1.17,6.355-.887-2.483-.1-5.2-.029-5.651,1.433-.945,3.042,6.013,4.534,10.166,5.255.1.02.191.03.281.049A18.661,18.661,0,0,1,66.767,20.871Z" fill="#a9a9a9"/>
        <path d="M35.728,40.859c-.633.507-.674,1.2-1.176,1.755a1.179,1.179,0,0,1-.252.234.9.9,0,0,1-1.226-.127.835.835,0,0,1,.321-1.16A5.032,5.032,0,0,1,35.728,40.859Z" fill="#a9a9a9"/>
        <path d="M68.637,32.6c-.03.3-.08.6-.131.907-.05.264-.1.527-.171.78a11.711,11.711,0,0,1-.593,1.794,12.935,12.935,0,0,1-1.749,2.925q-.363.439-.754.848c-.171.186-.352.361-.543.537-.272.253-.564.5-.865.731a10.546,10.546,0,0,1-.945.653,12.355,12.355,0,0,1-1.82.965c-.161.069-.312.137-.483.2a6.4,6.4,0,0,1-.613.225c-.382.127-.784.234-1.187.331-.03.01-.05.01-.08.02-.211.048-.432.087-.654.126-5.58.995-7.41,1.063-9.662,2.35-3.61,2.077-6.817,4.319-9.17,5.217a3.553,3.553,0,0,1-3.831-.858,6.442,6.442,0,0,1-1.971-3.735V46.6a4.271,4.271,0,0,1-2.634-2.252,4.457,4.457,0,0,1,1.428-5.391q.331-.249.633-.469a3.882,3.882,0,0,0-.03,6.357c1.77,1.112,3.861,1.356,8.788-2.174-.181.166-.352.332-.523.468-.08.078-.171.156-.251.224-3.178,2.925-4.223,3.52-4.183,4.524.04,1.219,1.186,1.414,2.182,1.4,4.052-.038,12.166-5.869,9.894-7.546.01.01.03.01.04.019,3.469,1.58,8.215,1.522,13.242-1.286C65.671,38.431,67.219,36.3,68.637,32.6Z" fill="#a9a9a9"/>
        <path d="M87.57,96.58c-4.012-5.148-11.523-3.666-23.98-3.393-11.071.234-20.23.049-23.7,1.843-4.455,2.291-5.37,6.708-3.178,8.648C39.6,106.233,52.027,107.5,60,107.5H31.284a1.42,1.42,0,0,1-1.448-1.4v-.419a17.368,17.368,0,0,1,6.355-13.406,17.941,17.941,0,0,1,6.907-3.6c-.462-.215-.925-.439-1.367-.673a27,27,0,0,1-2.564-1.5l5.309-3.529c-3.248-2.632-5.219-6.094-5.219-9.9v-.059C39.257,62.1,51.071,56.02,59.336,49a29.4,29.4,0,0,0,5.41-6.035c-12.508,19.188-21.8,18.252-21.8,30.644,0,6.1,7.511,12.7,17.053,12.7,21.416,0,24.946-21.362,24.946-30.127,0-13.631-4.525-21.557-11.151-29.514a41.531,41.531,0,0,1,7.491,10.579c.01.01.01.029.02.039,7.068,13.192,4.323,24.726,5.067,24.726,1,0,3.449-11.037,1.147-21.391a42.114,42.114,0,0,1,1.3,10.52A44.12,44.12,0,0,1,82.08,74.262c0,.01,0,.01-.01.01-1.78,3.978-4.072,7.069-6.546,8.7L80.833,86.5c-5.158-3.431-7.078,1.219-19.687,1.482C60.774,88,60.392,88,60,88c-6.9,0-11.231-.985-16.148,1.014a35.544,35.544,0,0,0,4.062,1.5q.513.162,1.026.293A39.374,39.374,0,0,0,54.3,91.89c.3.049.6.078.915.107.674.088,1.357.147,2.051.186l.533.029q1.086.058,2.2.059a40.02,40.02,0,0,0,16.9-3.6,18.151,18.151,0,0,1,6.907,3.6A17.721,17.721,0,0,1,87.57,96.58Z" fill="#a9a9a9"/>
        <path d="M90.164,105.677v.419a1.427,1.427,0,0,1-1.448,1.4H76.268c11.081-.166,14.509-1.238,13.152-6.776A16.246,16.246,0,0,1,90.164,105.677Z" fill="#a9a9a9"/>
        <path d="M44.194,25.98a28.813,28.813,0,0,0-1.015,3,.113.113,0,0,0-.011.059,21.716,21.716,0,0,1-1.126,3.763c-.663,1.19-3.559,2.779-5.982,3.676,1.96-1.043,3.167-1.443,4.545-3.256,1.739-2.282,1.669-2.526,2.976-5.763.06-.175.12-.361.191-.536a3,3,0,0,1,.13-.312C43.993,26.4,44.083,26.185,44.194,25.98Z" fill="#a9a9a9"/>
      </g>
    </g>
    <path d="M53.328,11.581a31.512,31.512,0,0,1,13.489,3.3,40.441,40.441,0,0,1,22,36.26A44.117,44.117,0,0,1,82.08,74.262c0,.01,0,.01-.01.01-1.78,3.978-4.072,7.069-6.546,8.7l5.309,3.53A27.2,27.2,0,0,1,78.269,88c-.442.234-.905.458-1.367.673a18.162,18.162,0,0,1,6.908,3.6,17.372,17.372,0,0,1,6.354,13.406v.419a1.427,1.427,0,0,1-1.448,1.4H31.284a1.42,1.42,0,0,1-1.448-1.4v-.419A17.372,17.372,0,0,1,36.19,92.271a17.952,17.952,0,0,1,6.908-3.6c-.462-.215-.925-.439-1.367-.673a27.2,27.2,0,0,1-2.564-1.5l5.309-3.53c-3.248-2.632-5.219-6.094-5.219-9.9v-.059C39.257,62.1,51.071,56.02,59.336,49c5.862-4.982,8.9-11.3,9.3-16.4A12.659,12.659,0,0,1,58.049,43.638c-5.58.994-7.41,1.062-9.662,2.349-3.61,2.077-6.817,4.32-9.17,5.217a3.553,3.553,0,0,1-3.831-.858,6.445,6.445,0,0,1-1.971-3.735V46.6a4.276,4.276,0,0,1-2.634-2.253,4.457,4.457,0,0,1,1.428-5.391c4.595-3.5,6.3-2.964,8.395-5.734,1.74-2.281,1.67-2.525,2.977-5.762a12.519,12.519,0,0,1,3.066-4.9.466.466,0,0,1,.071-.068,12.3,12.3,0,0,1,5.369-3.559c-2.654-1.482-4.374-4.612-3.026-6.367.483-.632,2.082-.983,4.267-.983m0-2h0c-4.5,0-5.522,1.331-5.856,1.769A4.553,4.553,0,0,0,46.7,15.1a7.784,7.784,0,0,0,1.717,3.349A13.988,13.988,0,0,0,45.3,21.078c-.036.035-.067.067-.093.1a14.587,14.587,0,0,0-3.5,5.593c-.208.517-.382.958-.533,1.343a11.6,11.6,0,0,1-2.157,3.9,6.906,6.906,0,0,1-2.948,2.212A29.8,29.8,0,0,0,31,37.367a6.455,6.455,0,0,0-2.05,7.779,1.719,1.719,0,0,0,.1.192A6.753,6.753,0,0,0,31.7,48.071a8.55,8.55,0,0,0,2.246,3.663,5.549,5.549,0,0,0,5.993,1.334,40.308,40.308,0,0,0,6.024-3.294c1.1-.675,2.238-1.373,3.42-2.053,1.471-.841,2.79-1.061,5.976-1.594.877-.146,1.878-.313,3.04-.521a14.922,14.922,0,0,0,2.135-.524,28.261,28.261,0,0,1-2.494,2.394c-1.679,1.426-3.487,2.8-5.4,4.248-7.21,5.465-15.383,11.659-15.383,21.29v.059A14.119,14.119,0,0,0,41.264,82.7l-3.205,2.131a2,2,0,0,0,.008,3.336c.111.073.223.146.334.217a19.928,19.928,0,0,0-3.5,2.354,19.383,19.383,0,0,0-7.067,14.937v.419a3.43,3.43,0,0,0,3.448,3.4H88.716a3.43,3.43,0,0,0,3.448-3.4v-.419a19.39,19.39,0,0,0-7.078-14.946A19.96,19.96,0,0,0,81.6,88.386l.333-.217a2,2,0,0,0,.008-3.336l-3.075-2.044a25.615,25.615,0,0,0,4.956-7.537,46.078,46.078,0,0,0,6.995-24.107c0-24.229-17.667-35.24-23.082-38.037A33.448,33.448,0,0,0,53.329,9.581Z" fill="#262626"/>
  </g>
</svg>
