<svg id="Layer_1" data-name="Layer 1" xmlns="http://www.w3.org/2000/svg" viewBox="2.31 2.31 115.38 115.38">
  <g>
    <path d="M89.372,104.369v1.881a1.25,1.25,0,0,1-1.25,1.25H31.872a1.245,1.245,0,0,1-1.25-1.25v-1.87A20.006,20.006,0,0,1,44,85.5c-.82-.351-1.62-.73-2.4-1.15l4.94-3.38,4.23-23.821a23.815,23.815,0,0,1-3.62-1.649l4.46-3.061A15.035,15.035,0,0,1,44.993,40a14.8,14.8,0,0,1,.629-4.28,14.992,14.992,0,0,1,28.741,0,14.928,14.928,0,0,1-1.991,12.74,14.962,14.962,0,0,1-4,3.979L72.833,55.5a23.815,23.815,0,0,1-3.62,1.649l4.23,23.821,4.94,3.38c-.78.42-1.58.8-2.4,1.15A20,20,0,0,1,89.372,104.369Z" fill="#f2f2f2"/>
    <path d="M59.993,25a14.988,14.988,0,0,1,14.37,10.72,14.928,14.928,0,0,1-1.991,12.74,14.962,14.962,0,0,1-4,3.979L72.833,55.5a23.815,23.815,0,0,1-3.62,1.649l4.23,23.821,4.94,3.38c-.78.42-1.58.8-2.4,1.15a20,20,0,0,1,13.389,18.869v1.881a1.25,1.25,0,0,1-1.25,1.25H31.872a1.245,1.245,0,0,1-1.25-1.25v-1.87A20.006,20.006,0,0,1,44,85.5c-.82-.351-1.62-.73-2.4-1.15l4.94-3.38,4.23-23.821a23.815,23.815,0,0,1-3.62-1.649l4.46-3.061A15.035,15.035,0,0,1,44.993,40a14.8,14.8,0,0,1,.629-4.28A14.99,14.99,0,0,1,59.993,25m0-2A17.069,17.069,0,0,0,43.7,35.154a17.018,17.018,0,0,0,4.565,17.154l-2.248,1.543a2,2,0,0,0,.146,3.389,24.517,24.517,0,0,0,2.352,1.166l-3.8,21.387L40.474,82.7a2,2,0,0,0-.673,2.519A22.038,22.038,0,0,0,28.622,104.38v1.87a3.254,3.254,0,0,0,3.25,3.25h56.25a3.253,3.253,0,0,0,3.25-3.25v-1.881A22.024,22.024,0,0,0,80.186,85.216a2,2,0,0,0-.673-2.517l-4.248-2.906-3.8-21.387a24.828,24.828,0,0,0,2.35-1.165,2,2,0,0,0,.147-3.39l-2.248-1.543A17,17,0,0,0,59.993,23Z" fill="#262626"/>
    <g>
      <path d="M86.848,94.65C82.259,88.07,74.93,89.28,60,89.56c-12.5.23-15.748.15-20.467,2.8-4.889,2.74-6.459,9.09-4.089,11.33,3.019,2.85,15.327,3.81,24.556,3.81H31.887a1.245,1.245,0,0,1-1.259-1.25v-1.87A20,20,0,0,1,44.015,85.5c-.83-.35-1.619-.73-2.409-1.15l4.939-3.38,4.239-23.82a23.922,23.922,0,0,1-3.629-1.65l4.459-3.06A15.043,15.043,0,0,1,45,40a14.771,14.771,0,0,1,.63-4.28,14.988,14.988,0,0,1,28.735,0,13.559,13.559,0,0,1,.56,2.93A13.69,13.69,0,0,0,47.675,40,13.666,13.666,0,0,0,74.99,40a14.889,14.889,0,0,1-2.61,8.46,15.123,15.123,0,0,1-4,3.98L72.84,55.5C68.8,52.74,65.4,55.09,60,55.27c-5.16.18-6.629.69-8.749,2.04a9.242,9.242,0,0,0,.89.29c.31.1.63.19.96.28a27.746,27.746,0,0,0,13.787,0c.79-.21,1.57-.45,2.32-.73l1.47,8.26c-.64-3.62-2.3-4.98-3.87-5.52-3.319-1.14-9.068-.93-12.548,2.24-4.149,3.78-5.349,13.02-2.749,17.06,3.019,4.68,13.6,5.19,17.927,2.93,2.279-1.2,3.609-3.37,2.9-7.36l1.11,6.21,4.939,3.38c-4.5-3.08-7.948-.33-16.687-.02a1.477,1.477,0,0,1-.21.01c-.14.01-.29.02-.43.02-.18.01-.35.01-.53.01s-.36.01-.54.01c-.339,0-.669,0-1.009-.01h-.06c-5.279-.07-10.469-.6-13.758,1.61.26.1.51.2.77.29a41.081,41.081,0,0,0,28.115,0c.66-.23,1.3-.49,1.93-.77A20.076,20.076,0,0,1,86.848,94.65Z" fill="#a9a9a9"/>
      <path d="M89.378,104.37v1.88a1.253,1.253,0,0,1-1.26,1.25H71.9c14.508-.12,18.347-1.13,16.708-8.63A19.966,19.966,0,0,1,89.378,104.37Z" fill="#a9a9a9"/>
    </g>
  </g>
</svg>
