<svg id="Layer_1" data-name="Layer 1" xmlns="http://www.w3.org/2000/svg" viewBox="2.31 2.31 115.38 115.38">
  <g>
    <path d="M107.484,36.3A10.25,10.25,0,0,1,97.238,46.553a9.782,9.782,0,0,1-1.491-.112L93.8,50.519l-1,2.09L79.641,80.078v.01L85.341,84c-1.425.534-2.916,1.012-4.463,1.434a19.92,19.92,0,0,1,10.181,17.381v3.338a1.35,1.35,0,0,1-1.35,1.35H30.3a1.35,1.35,0,0,1-1.35-1.35v-3.338A19.894,19.894,0,0,1,39.122,85.441C37.575,85,36.084,84.531,34.659,84l5.71-3.909v-.01L27.216,52.609l-1-2.1-1.949-4.068a9.8,9.8,0,0,1-1.491.112A10.245,10.245,0,1,1,30.9,42.559l4.153,3.8,1.106,1,8.635,7.894-.347-10.49-.038-.947-.328-10.022a10.257,10.257,0,0,1-.665-20.025,10.121,10.121,0,0,1,2.522-.319,10.257,10.257,0,0,1,5.371,18.994l4.238,10.022.291.7L60,53l4.163-9.834.29-.7L68.7,32.444a10.249,10.249,0,1,1,7.228,1.35L75.6,43.816l-.037.947-.347,10.49,8.634-7.894,1.106-1,4.163-3.806A10.251,10.251,0,1,1,107.484,36.3Z" fill="#f2f2f2"/>
    <g>
      <path d="M84.309,24.212a10.252,10.252,0,0,1-8.381,9.582L75.7,40.516c.066-3.544-.215-6.047-2.606-6.2-3.9-.253-7.688,6.056-12.628,17.578l3.694-8.728.29-.7L68.7,32.444A10.252,10.252,0,1,1,84.216,22.328a9.209,9.209,0,1,0,.093,1.884Z" fill="#a9a9a9"/>
      <path d="M51.309,32.444l4.238,10.022.291.7.309.731c-3.741-8.578-5.531-10.406-7.828-9.553-2.25.844-3.816,8.156-3.591,18.815l-.281-8.4-.038-.946-.328-10.022a10.257,10.257,0,0,1-.665-20.025,10.121,10.121,0,0,1,2.522-.319,10.24,10.24,0,0,1,10.209,9.356,8.747,8.747,0,1,0,0,1.8A10.208,10.208,0,0,1,51.309,32.444Z" fill="#a9a9a9"/>
      <path d="M107.288,38.275a10.243,10.243,0,0,1-10.05,8.278,9.782,9.782,0,0,1-1.491-.112L93.8,50.519l-.581,1.209c1.781-3.722,1.359-5.128-.478-6.216-.2-.112-.413-.224-.647-.346a.032.032,0,0,1-.028-.01c-2.607-1.265-7.275,1.481-15.441,8.813l7.228-6.61,1.106-1,4.163-3.806a10.251,10.251,0,1,1,18.169-8.25,9.8,9.8,0,1,0,0,3.975Z" fill="#a9a9a9"/>
      <path d="M91.059,102.812v3.338a1.35,1.35,0,0,1-1.35,1.35H60c21.478-.009,31.819-.319,30.769-8.109A20.681,20.681,0,0,1,91.059,102.812Z" fill="#a9a9a9"/>
      <path d="M88.631,93.278C84.15,87.456,72.647,88.787,60.009,89.3c-11.981.478-18.009-.122-22.987,2.925-4.172,2.56-4.247,7.978-2.363,10.294C37.941,106.534,53.616,107.5,60,107.5H30.3a1.35,1.35,0,0,1-1.35-1.35v-3.338A19.894,19.894,0,0,1,39.122,85.441C37.575,85,36.084,84.531,34.659,84l5.71-3.909v-.01L27.216,52.609l-1-2.1-1.95-4.068a9.8,9.8,0,0,1-1.491.112A10.256,10.256,0,1,1,32.981,35.359a8.418,8.418,0,1,0-.018,2.007A10.211,10.211,0,0,1,30.9,42.559l4.153,3.8,1.106,1,7.9,7.228c-9.807-8.812-13.313-9.065-14.475-8.034-2.185,1.941,1.678,11.766,5.071,16.716,10.313,15.065,21.029,19.35,35.147,17.193,9.488-1.453,16.078-13.575,19.182-19.912L79.641,80.078v.01L85.341,84c-4.763-3.263-7.482-1.219-24-1.116-.441.01-.882.01-1.341.01-13.378,0-16.4.665-20.241,2.718.375.113.76.207,1.144.3s.769.2,1.163.282.768.178,1.162.253q1.2.267,2.447.478c.4.075.816.141,1.228.206.375.066.75.122,1.135.178.5.075,1,.141,1.518.206.375.047.75.094,1.135.132.778.093,1.575.168,2.372.234q3.389.282,6.937.281a77.891,77.891,0,0,0,20.878-2.728A20,20,0,0,1,88.631,93.278Z" fill="#a9a9a9"/>
    </g>
    <path d="M74.063,13.45a10.258,10.258,0,0,1,1.865,20.344L75.6,43.816l-.038.947-.346,10.49,8.634-7.894,1.106-1,4.163-3.806a10.242,10.242,0,1,1,8.119,4,9.782,9.782,0,0,1-1.491-.112L93.8,50.519l-1,2.09L79.641,80.078v.01L85.341,84c-1.425.534-2.916,1.012-4.463,1.434a19.92,19.92,0,0,1,10.181,17.382v3.337a1.35,1.35,0,0,1-1.35,1.35H30.3a1.35,1.35,0,0,1-1.35-1.35v-3.337A19.9,19.9,0,0,1,39.122,85.441C37.575,85,36.084,84.531,34.659,84l5.71-3.909v-.01L27.216,52.609l-1-2.1-1.949-4.068a9.8,9.8,0,0,1-1.491.112A10.245,10.245,0,1,1,30.9,42.559l4.153,3.8,1.106,1,8.635,7.894-.347-10.49-.038-.947-.328-10.022a10.257,10.257,0,0,1-.665-20.025,10.121,10.121,0,0,1,2.522-.319,10.257,10.257,0,0,1,5.371,18.994l4.238,10.022.291.7L60,53l4.163-9.834.29-.7L68.7,32.444A10.257,10.257,0,0,1,74.063,13.45m0-2a12.26,12.26,0,0,0-7.828,21.685l-3.623,8.55-.3.72L60,47.872l-2.321-5.483L57.4,41.7l-3.621-8.566a12.251,12.251,0,1,0-11.643,2.223l.279,8.522.038.961.19,5.73-5.129-4.689L36.4,44.875,33.5,42.229A12.259,12.259,0,0,0,14.446,27.3a12.256,12.256,0,0,0,8.326,21.25l.284,0,1.353,2.824,1,2.1L37.828,79.4l-4.3,2.944a2,2,0,0,0,.428,3.523c.229.085.463.171.7.256a21.955,21.955,0,0,0-7.709,16.687v3.337a3.354,3.354,0,0,0,3.35,3.35H89.709a3.353,3.353,0,0,0,3.35-3.35v-3.337a21.962,21.962,0,0,0-7.709-16.69c.233-.083.464-.168.693-.253a2,2,0,0,0,.429-3.522L82.181,79.4,94.6,53.473l1-2.089,1.355-2.834c.094,0,.188,0,.283,0A12.256,12.256,0,1,0,84.981,36.3a12.105,12.105,0,0,0,1.531,5.926L83.607,44.88l-1.1,1-5.136,4.694.19-5.743L77.6,43.9l.28-8.535a12.26,12.26,0,0,0-3.815-23.91Z" fill="#262626"/>
  </g>
</svg>
