<svg id="Layer_1" data-name="Layer 1" xmlns="http://www.w3.org/2000/svg" viewBox="2.31 2.31 115.38 115.38">
  <g>
    <path d="M89.584,103v3.2a1.318,1.318,0,0,1-1.337,1.3h-56.5a1.309,1.309,0,0,1-1.327-1.3V103a17.7,17.7,0,0,1,6.293-13.5,18.034,18.034,0,0,1,3.35-2.286c-1.448-.36-2.849-.756-4.195-1.2L37.4,85l3.5-2.322v-.009L41.3,53.257v-.009l.01-.909.038-2.214.027-1.989c-1.531-.333-3.007-.72-4.418-1.152l1.206-.8,3.268-2.178c-.372-.09-.733-.189-1.086-.288a.035.035,0,0,0-.028-.009,6.863,6.863,0,0,1-4.984-5.283L35.1,37.192l-2.32-12.384a3.391,3.391,0,0,1,2.849-3.933l8.288-1.341a3.477,3.477,0,0,1,4,2.718l2.134,11.277a.466.466,0,0,0,.919-.054l.77-12.735a2.291,2.291,0,0,1,2.32-2.115H65.926a2.291,2.291,0,0,1,2.32,2.115l.771,12.726a.466.466,0,0,0,.919.054L72.07,22.252a3.477,3.477,0,0,1,4-2.718l8.288,1.341a3.393,3.393,0,0,1,2.849,3.933l-2.32,12.384-.232,1.233a6.863,6.863,0,0,1-4.984,5.283.034.034,0,0,0-.028.009c-.353.1-.715.2-1.086.288l3.267,2.178,1.207.8q-2.117.648-4.419,1.152l.028,1.989.038,2.214.009.909v.009L79.1,82.669v.009L82.6,85l1.532,1.017c-1.346.441-2.747.837-4.2,1.2a18.075,18.075,0,0,1,3.36,2.286A17.7,17.7,0,0,1,89.584,103Z" fill="#f2f2f2"/>
    <g>
      <path d="M83.005,20.659C75.1,19.534,71.952,23.566,70.124,32.566l1.949-10.314a3.471,3.471,0,0,1,4-2.718Z" fill="#a9a9a9"/>
      <path d="M83.283,89.5a17.807,17.807,0,0,0-3.359-2.286A84.144,84.144,0,0,1,59.991,89.5c-1.355,0-2.691-.027-4.009-.09-.334-.009-.668-.027-1-.045-.251-.009-.492-.027-.733-.045-.427-.027-.845-.054-1.263-.09-.454-.027-.909-.072-1.354-.117-.557-.045-1.114-.1-1.661-.162-.715-.081-1.43-.171-2.126-.261-.259-.036-.519-.072-.779-.117q-.7-.094-1.392-.216c-.594-.1-1.179-.2-1.754-.315-.213-.036-.417-.072-.631-.117-.575-.108-1.141-.234-1.7-.36-.26-.054-.511-.108-.761-.171C44.892,85.693,48.391,85,59.991,85c.445,0,.872,0,1.3-.009,15.386-.1,18.281-2,22.828,1.026L82.587,85,79.1,82.678v-.009L78.912,69.25C78.9,75.793,77.047,79.834,74.6,81.274c-8.741,5.112-24.072,2.808-28.275-2.358-4.882-5.976-3.3-20.637,2.264-24.687,4.677-3.393,18.986-3.9,23.663-2.619,3.378.927,6.45,2.376,6.533,8.784l-.092-7.137v-.009l-.019-.909-.028-2.214-.037-1.989a84.3,84.3,0,0,1-18.615,1.989q-2.507,0-4.946-.135c-.715-.036-1.411-.081-2.107-.135-.39-.027-.761-.063-1.141-.1l-1.132-.108c-.567-.054-1.133-.117-1.689-.2-.251-.027-.5-.054-.743-.09-.343-.045-.677-.09-1.011-.153-.056-.009-.121-.009-.177-.018-.361-.045-.714-.1-1.067-.162a.034.034,0,0,0-.028-.009c-.408-.063-.816-.135-1.215-.207L44,48.676c-.019,0-.047-.009-.065-.009-.631-.117-1.253-.243-1.866-.387,3.74-1.836,9.9-2.115,16.964-2.1.315.009.631.009.956.009,16.75.1,18.188-2.466,23.041.792l-1.206-.8L78.55,44.005c.381-.09.733-.189,1.086-.288.009-.009.019-.009.037-.009a6.874,6.874,0,0,0,4.983-5.283l.232-1.233L86,31.225c-2.264,12.087-6.431,14.022-26,14.022-11.776,0-20.146-2.268-23.3-13.986-1.178-4.383-2.709-7.821,4.872-10.314,2.626-.873,5.689-1.431,6.8,3.69l-.454-2.385a3.471,3.471,0,0,0-4-2.718l-8.287,1.341a3.393,3.393,0,0,0-2.849,3.933L35.1,37.192l.232,1.233a6.889,6.889,0,0,0,4.984,5.283.058.058,0,0,1,.037.009c.352.1.705.2,1.076.288l-3.266,2.178-1.207.8c1.42.432,2.886.819,4.417,1.152l-.027,1.989-.038,2.214-.009.909v.009l-.408,29.412v.009L37.4,85l-1.541,1.017q2.033.662,4.2,1.2A18.068,18.068,0,0,0,36.708,89.5,17.7,17.7,0,0,0,30.416,103v3.2a1.315,1.315,0,0,0,1.327,1.3H60c-7.359,0-21.473-1.557-24.137-4.32-2.013-2.1-1.93-7.4,2.227-9.81,3.657-2.124,9.661-2.079,21.9-2.3,11.516-.207,23.014-2.061,27.449,3.537A18.033,18.033,0,0,0,83.283,89.5ZM67.916,45.814c-.112.018-.214.027-.325.036l-.362.027C67.461,45.859,67.684,45.841,67.916,45.814Z" fill="#a9a9a9"/>
      <path d="M89.584,103v3.2a1.326,1.326,0,0,1-1.346,1.3H60c24.23,0,30.224-.441,29.176-8.235A17.147,17.147,0,0,1,89.584,103Z" fill="#a9a9a9"/>
      <path d="M64.51,18.625c-9.363.144-12.778,4.986-13.493,14.319l.724-12.2a2.3,2.3,0,0,1,2.32-2.115Z" fill="#a9a9a9"/>
    </g>
    <path d="M65.926,18.625a2.291,2.291,0,0,1,2.32,2.115l.771,12.726a.441.441,0,0,0,.461.423.45.45,0,0,0,.458-.369L72.07,22.252a3.459,3.459,0,0,1,3.421-2.765,3.559,3.559,0,0,1,.579.047l8.289,1.341a3.392,3.392,0,0,1,2.849,3.933l-2.32,12.384-.232,1.233a6.863,6.863,0,0,1-4.984,5.283.034.034,0,0,0-.028.009c-.353.1-.715.2-1.086.288l3.267,2.178,1.206.8c-1.41.432-2.886.819-4.417,1.152l.027,1.989.038,2.214.009.909v.009L79.1,82.669v.009L82.6,85l1.532,1.017c-1.346.441-2.748.837-4.2,1.2a18.075,18.075,0,0,1,3.36,2.286A17.7,17.7,0,0,1,89.584,103v3.2a1.317,1.317,0,0,1-1.337,1.3h-56.5a1.309,1.309,0,0,1-1.327-1.3V103a17.7,17.7,0,0,1,6.293-13.5,18.034,18.034,0,0,1,3.35-2.286c-1.448-.36-2.849-.756-4.195-1.2L37.4,85l3.5-2.322v-.009L41.3,53.257v-.009l.009-.909.037-2.214.028-1.989c-1.531-.333-3.007-.72-4.418-1.152l1.207-.8,3.267-2.178c-.371-.09-.733-.189-1.086-.288a.035.035,0,0,0-.028-.009,6.861,6.861,0,0,1-4.984-5.283L35.1,37.192l-2.32-12.384a3.391,3.391,0,0,1,2.849-3.933l8.288-1.341a3.581,3.581,0,0,1,.58-.047,3.458,3.458,0,0,1,3.42,2.765l2.135,11.277a.449.449,0,0,0,.457.369.442.442,0,0,0,.462-.423l.77-12.735a2.292,2.292,0,0,1,2.321-2.115H65.926m0-2H54.065a4.3,4.3,0,0,0-4.317,3.99l-.036.594A5.47,5.47,0,0,0,44.5,17.487a5.58,5.58,0,0,0-.9.073L35.313,18.9A5.456,5.456,0,0,0,31.7,21.157a5.267,5.267,0,0,0-.879,4.015L33.137,37.56,33.37,38.8a8.7,8.7,0,0,0,3.791,5.655l-.105.069-1.2.8a2,2,0,0,0,.521,3.578c.973.3,1.97.574,2.981.823l-.006.378-.037,2.209-.009.922L38.909,81.6,36.29,83.334l-1.532,1.017a2,2,0,0,0,.483,3.567l.174.056-.014.013A19.742,19.742,0,0,0,28.416,103v3.2a3.316,3.316,0,0,0,3.327,3.3h56.5a3.321,3.321,0,0,0,3.337-3.3V103a19.751,19.751,0,0,0-7-15.022l-.007-.006.167-.054a2,2,0,0,0,.484-3.567L83.7,83.334,81.081,81.6l-.393-28.366-.01-.91-.037-2.228-.005-.372c1.01-.249,2.008-.525,2.981-.823a2,2,0,0,0,.521-3.578l-1.207-.8-.1-.067A8.69,8.69,0,0,0,86.62,38.8l.233-1.237,2.321-12.386a5.268,5.268,0,0,0-.878-4.019A5.453,5.453,0,0,0,84.684,18.9L76.39,17.56a5.518,5.518,0,0,0-6.112,3.649l-.035-.59a4.3,4.3,0,0,0-4.317-3.994Z" fill="#262626"/>
  </g>
</svg>
